<svg width="449" height="189" viewBox="0 0 449 189" fill="none" xmlns="http://www.w3.org/2000/svg">
<rect width="449" height="189" rx="22" fill="white"/>
<rect x="77.5" y="3.49164" width="320" height="166" stroke="#ECECEC"/>
<path d="M77 57.9916H398" stroke="#ECECEC"/>
<path d="M77 30.9916H398" stroke="#ECECEC"/>
<path d="M77 84.9916H398" stroke="#ECECEC"/>
<path d="M77 111.992H398" stroke="#ECECEC"/>
<path d="M77 138.992H398" stroke="#ECECEC"/>
<path d="M131 2.99164L131 169.992" stroke="#ECECEC"/>
<path d="M184 2.99164L184 169.992" stroke="#ECECEC"/>
<path d="M237 2.99164L237 169.992" stroke="#ECECEC"/>
<path d="M290 2.99164L290 169.992" stroke="#ECECEC"/>
<path d="M343 2.99164L343 169.992" stroke="#ECECEC"/>
<path d="M40.5728 165.159V166.097H36.7546V165.159H40.5728ZM45.3935 161.264V169.992H44.3366V162.372H44.2855L42.1548 163.787V162.713L44.3366 161.264H45.3935ZM50.75 170.111C50.108 170.111 49.5611 169.936 49.1094 169.587C48.6577 169.235 48.3125 168.725 48.0739 168.057C47.8352 167.387 47.7159 166.577 47.7159 165.628C47.7159 164.685 47.8352 163.879 48.0739 163.212C48.3153 162.541 48.6619 162.03 49.1136 161.678C49.5682 161.323 50.1136 161.145 50.75 161.145C51.3864 161.145 51.9304 161.323 52.3821 161.678C52.8366 162.03 53.1832 162.541 53.4219 163.212C53.6634 163.879 53.7841 164.685 53.7841 165.628C53.7841 166.577 53.6648 167.387 53.4261 168.057C53.1875 168.725 52.8423 169.235 52.3906 169.587C51.9389 169.936 51.392 170.111 50.75 170.111ZM50.75 169.173C51.3864 169.173 51.8807 168.867 52.233 168.253C52.5852 167.639 52.7614 166.764 52.7614 165.628C52.7614 164.872 52.6804 164.229 52.5185 163.698C52.3594 163.166 52.1293 162.762 51.8281 162.483C51.5298 162.205 51.1705 162.066 50.75 162.066C50.1193 162.066 49.6264 162.377 49.2713 162.999C48.9162 163.618 48.7386 164.494 48.7386 165.628C48.7386 166.384 48.8182 167.026 48.9773 167.554C49.1364 168.083 49.3651 168.485 49.6634 168.76C49.9645 169.036 50.3267 169.173 50.75 169.173ZM58.25 170.111C57.608 170.111 57.0611 169.936 56.6094 169.587C56.1577 169.235 55.8125 168.725 55.5739 168.057C55.3352 167.387 55.2159 166.577 55.2159 165.628C55.2159 164.685 55.3352 163.879 55.5739 163.212C55.8153 162.541 56.1619 162.03 56.6136 161.678C57.0682 161.323 57.6136 161.145 58.25 161.145C58.8864 161.145 59.4304 161.323 59.8821 161.678C60.3366 162.03 60.6832 162.541 60.9219 163.212C61.1634 163.879 61.2841 164.685 61.2841 165.628C61.2841 166.577 61.1648 167.387 60.9261 168.057C60.6875 168.725 60.3423 169.235 59.8906 169.587C59.4389 169.936 58.892 170.111 58.25 170.111ZM58.25 169.173C58.8864 169.173 59.3807 168.867 59.733 168.253C60.0852 167.639 60.2614 166.764 60.2614 165.628C60.2614 164.872 60.1804 164.229 60.0185 163.698C59.8594 163.166 59.6293 162.762 59.3281 162.483C59.0298 162.205 58.6705 162.066 58.25 162.066C57.6193 162.066 57.1264 162.377 56.7713 162.999C56.4162 163.618 56.2386 164.494 56.2386 165.628C56.2386 166.384 56.3182 167.026 56.4773 167.554C56.6364 168.083 56.8651 168.485 57.1634 168.76C57.4645 169.036 57.8267 169.173 58.25 169.173Z" fill="#4F4F4F"/>
<path d="M46.1626 134.159V135.097H42.3445V134.159H46.1626ZM50.8129 139.111C50.4549 139.105 50.0969 139.037 49.739 138.906C49.381 138.776 49.0543 138.556 48.7589 138.246C48.4634 137.933 48.2262 137.512 48.0472 136.98C47.8683 136.446 47.7788 135.776 47.7788 134.969C47.7788 134.196 47.8512 133.512 47.9961 132.915C48.141 132.316 48.3512 131.811 48.6268 131.402C48.9023 130.99 49.2347 130.678 49.6239 130.465C50.016 130.252 50.4577 130.145 50.9492 130.145C51.4379 130.145 51.8725 130.243 52.2532 130.439C52.6367 130.632 52.9492 130.902 53.1907 131.249C53.4322 131.595 53.5884 131.994 53.6594 132.446H52.6197C52.5231 132.054 52.3356 131.729 52.0572 131.47C51.7788 131.212 51.4094 131.083 50.9492 131.083C50.2731 131.083 49.7404 131.377 49.3512 131.965C48.9648 132.553 48.7702 133.378 48.7674 134.441H48.8356C48.9947 134.199 49.1836 133.993 49.4023 133.823C49.6239 133.649 49.8683 133.516 50.1353 133.422C50.4023 133.328 50.685 133.281 50.9833 133.281C51.4833 133.281 51.9407 133.406 52.3555 133.656C52.7702 133.904 53.1026 134.246 53.3526 134.683C53.6026 135.118 53.7276 135.617 53.7276 136.179C53.7276 136.719 53.6069 137.213 53.3654 137.662C53.1239 138.108 52.7844 138.463 52.3469 138.727C51.9123 138.989 51.4009 139.117 50.8129 139.111ZM50.8129 138.173C51.1708 138.173 51.4918 138.084 51.7759 137.905C52.0629 137.726 52.2887 137.486 52.4535 137.185C52.6211 136.884 52.7049 136.548 52.7049 136.179C52.7049 135.818 52.6239 135.49 52.462 135.195C52.3029 134.896 52.0827 134.659 51.8015 134.483C51.5231 134.307 51.2049 134.219 50.8469 134.219C50.5771 134.219 50.3256 134.273 50.0927 134.381C49.8597 134.486 49.6552 134.631 49.479 134.816C49.3058 135 49.1694 135.212 49.07 135.45C48.9705 135.686 48.9208 135.935 48.9208 136.196C48.9208 136.543 49.0018 136.867 49.1637 137.168C49.3285 137.469 49.5529 137.712 49.837 137.896C50.1239 138.081 50.4492 138.173 50.8129 138.173ZM58.25 139.111C57.608 139.111 57.0611 138.936 56.6094 138.587C56.1577 138.235 55.8125 137.725 55.5739 137.057C55.3352 136.387 55.2159 135.577 55.2159 134.628C55.2159 133.685 55.3352 132.879 55.5739 132.212C55.8153 131.541 56.1619 131.03 56.6136 130.678C57.0682 130.323 57.6136 130.145 58.25 130.145C58.8864 130.145 59.4304 130.323 59.8821 130.678C60.3366 131.03 60.6832 131.541 60.9219 132.212C61.1634 132.879 61.2841 133.685 61.2841 134.628C61.2841 135.577 61.1648 136.387 60.9261 137.057C60.6875 137.725 60.3423 138.235 59.8906 138.587C59.4389 138.936 58.892 139.111 58.25 139.111ZM58.25 138.173C58.8864 138.173 59.3807 137.867 59.733 137.253C60.0852 136.639 60.2614 135.764 60.2614 134.628C60.2614 133.872 60.1804 133.229 60.0185 132.698C59.8594 132.166 59.6293 131.762 59.3281 131.483C59.0298 131.205 58.6705 131.066 58.25 131.066C57.6193 131.066 57.1264 131.377 56.7713 131.999C56.4162 132.618 56.2386 133.494 56.2386 134.628C56.2386 135.384 56.3182 136.026 56.4773 136.554C56.6364 137.083 56.8651 137.485 57.1634 137.76C57.4645 138.036 57.8267 138.173 58.25 138.173Z" fill="#4F4F4F"/>
<path d="M46.7955 107.159V108.097H42.9773V107.159H46.7955ZM48.1378 111.992V111.225L51.0185 108.071C51.3565 107.702 51.6349 107.381 51.8537 107.108C52.0724 106.833 52.2344 106.574 52.3395 106.333C52.4474 106.088 52.5014 105.833 52.5014 105.566C52.5014 105.259 52.4276 104.993 52.2798 104.769C52.1349 104.544 51.9361 104.371 51.6832 104.249C51.4304 104.127 51.1463 104.066 50.831 104.066C50.4957 104.066 50.2031 104.135 49.9531 104.274C49.706 104.411 49.5142 104.602 49.3778 104.85C49.2443 105.097 49.1776 105.387 49.1776 105.719H48.1719C48.1719 105.208 48.2898 104.759 48.5256 104.372C48.7614 103.986 49.0824 103.685 49.4886 103.469C49.8977 103.253 50.3565 103.145 50.8651 103.145C51.3764 103.145 51.8295 103.253 52.2244 103.469C52.6193 103.685 52.929 103.976 53.1534 104.342C53.3778 104.709 53.4901 105.117 53.4901 105.566C53.4901 105.887 53.4318 106.2 53.3153 106.507C53.2017 106.811 53.0028 107.151 52.7188 107.526C52.4375 107.898 52.0469 108.352 51.5469 108.889L49.5866 110.986V111.054H53.6435V111.992H48.1378ZM58.25 112.111C57.608 112.111 57.0611 111.936 56.6094 111.587C56.1577 111.235 55.8125 110.725 55.5739 110.057C55.3352 109.387 55.2159 108.577 55.2159 107.628C55.2159 106.685 55.3352 105.879 55.5739 105.212C55.8153 104.541 56.1619 104.03 56.6136 103.678C57.0682 103.323 57.6136 103.145 58.25 103.145C58.8864 103.145 59.4304 103.323 59.8821 103.678C60.3366 104.03 60.6832 104.541 60.9219 105.212C61.1634 105.879 61.2841 106.685 61.2841 107.628C61.2841 108.577 61.1648 109.387 60.9261 110.057C60.6875 110.725 60.3423 111.235 59.8906 111.587C59.4389 111.936 58.892 112.111 58.25 112.111ZM58.25 111.173C58.8864 111.173 59.3807 110.867 59.733 110.253C60.0852 109.639 60.2614 108.764 60.2614 107.628C60.2614 106.872 60.1804 106.229 60.0185 105.698C59.8594 105.166 59.6293 104.762 59.3281 104.483C59.0298 104.205 58.6705 104.066 58.25 104.066C57.6193 104.066 57.1264 104.377 56.7713 104.999C56.4162 105.618 56.2386 106.494 56.2386 107.628C56.2386 108.384 56.3182 109.026 56.4773 109.554C56.6364 110.083 56.8651 110.485 57.1634 110.76C57.4645 111.036 57.8267 111.173 58.25 111.173Z" fill="#4F4F4F"/>
<path d="M58.25 86.111C57.608 86.111 57.0611 85.9362 56.6094 85.5868C56.1577 85.2345 55.8125 84.7246 55.5739 84.057C55.3352 83.3865 55.2159 82.5769 55.2159 81.628C55.2159 80.6848 55.3352 79.8794 55.5739 79.2118C55.8153 78.5414 56.1619 78.03 56.6136 77.6777C57.0682 77.3226 57.6136 77.145 58.25 77.145C58.8864 77.145 59.4304 77.3226 59.8821 77.6777C60.3366 78.03 60.6832 78.5414 60.9219 79.2118C61.1634 79.8794 61.2841 80.6848 61.2841 81.628C61.2841 82.5769 61.1648 83.3865 60.9261 84.057C60.6875 84.7246 60.3423 85.2345 59.8906 85.5868C59.4389 85.9362 58.892 86.111 58.25 86.111ZM58.25 85.1735C58.8864 85.1735 59.3807 84.8666 59.733 84.253C60.0852 83.6394 60.2614 82.7644 60.2614 81.628C60.2614 80.8723 60.1804 80.2289 60.0185 79.6976C59.8594 79.1664 59.6293 78.7615 59.3281 78.4831C59.0298 78.2047 58.6705 78.0655 58.25 78.0655C57.6193 78.0655 57.1264 78.3766 56.7713 78.9987C56.4162 79.6181 56.2386 80.4945 56.2386 81.628C56.2386 82.3837 56.3182 83.0257 56.4773 83.5541C56.6364 84.0825 56.8651 84.4845 57.1634 84.7601C57.4645 85.0357 57.8267 85.1735 58.25 85.1735Z" fill="#4F4F4F"/>
<path d="M48.1378 57.9916V57.2246L51.0185 54.0712C51.3565 53.7019 51.6349 53.3808 51.8537 53.1081C52.0724 52.8325 52.2344 52.574 52.3395 52.3325C52.4474 52.0882 52.5014 51.8325 52.5014 51.5655C52.5014 51.2587 52.4276 50.9931 52.2798 50.7686C52.1349 50.5442 51.9361 50.3709 51.6832 50.2487C51.4304 50.1266 51.1463 50.0655 50.831 50.0655C50.4957 50.0655 50.2031 50.1351 49.9531 50.2743C49.706 50.4107 49.5142 50.6024 49.3778 50.8496C49.2443 51.0968 49.1776 51.3865 49.1776 51.7189H48.1719C48.1719 51.2075 48.2898 50.7587 48.5256 50.3723C48.7614 49.986 49.0824 49.6848 49.4886 49.4689C49.8977 49.253 50.3565 49.145 50.8651 49.145C51.3764 49.145 51.8295 49.253 52.2244 49.4689C52.6193 49.6848 52.929 49.976 53.1534 50.3425C53.3778 50.709 53.4901 51.1166 53.4901 51.5655C53.4901 51.8865 53.4318 52.2004 53.3153 52.5073C53.2017 52.8112 53.0028 53.1507 52.7188 53.5257C52.4375 53.8979 52.0469 54.3524 51.5469 54.8894L49.5866 56.986V57.0541H53.6435V57.9916H48.1378ZM58.25 58.111C57.608 58.111 57.0611 57.9362 56.6094 57.5868C56.1577 57.2345 55.8125 56.7246 55.5739 56.057C55.3352 55.3865 55.2159 54.5769 55.2159 53.628C55.2159 52.6848 55.3352 51.8794 55.5739 51.2118C55.8153 50.5414 56.1619 50.03 56.6136 49.6777C57.0682 49.3226 57.6136 49.145 58.25 49.145C58.8864 49.145 59.4304 49.3226 59.8821 49.6777C60.3366 50.03 60.6832 50.5414 60.9219 51.2118C61.1634 51.8794 61.2841 52.6848 61.2841 53.628C61.2841 54.5769 61.1648 55.3865 60.9261 56.057C60.6875 56.7246 60.3423 57.2345 59.8906 57.5868C59.4389 57.9362 58.892 58.111 58.25 58.111ZM58.25 57.1735C58.8864 57.1735 59.3807 56.8666 59.733 56.253C60.0852 55.6394 60.2614 54.7644 60.2614 53.628C60.2614 52.8723 60.1804 52.2289 60.0185 51.6976C59.8594 51.1664 59.6293 50.7615 59.3281 50.4831C59.0298 50.2047 58.6705 50.0655 58.25 50.0655C57.6193 50.0655 57.1264 50.3766 56.7713 50.9987C56.4162 51.6181 56.2386 52.4945 56.2386 53.628C56.2386 54.3837 56.3182 55.0257 56.4773 55.5541C56.6364 56.0825 56.8651 56.4845 57.1634 56.7601C57.4645 57.0357 57.8267 57.1735 58.25 57.1735Z" fill="#4F4F4F"/>
<path d="M50.8129 31.111C50.4549 31.1053 50.0969 31.0371 49.739 30.9064C49.381 30.7757 49.0543 30.5556 48.7589 30.2459C48.4634 29.9334 48.2262 29.5115 48.0472 28.9803C47.8683 28.4462 47.7788 27.7757 47.7788 26.9689C47.7788 26.1962 47.8512 25.5115 47.9961 24.9149C48.141 24.3155 48.3512 23.8112 48.6268 23.4021C48.9023 22.9902 49.2347 22.6777 49.6239 22.4646C50.016 22.2516 50.4577 22.145 50.9492 22.145C51.4379 22.145 51.8725 22.2431 52.2532 22.4391C52.6367 22.6323 52.9492 22.9021 53.1907 23.2487C53.4322 23.5953 53.5884 23.9945 53.6594 24.4462H52.6197C52.5231 24.0541 52.3356 23.7289 52.0572 23.4703C51.7788 23.2118 51.4094 23.0825 50.9492 23.0825C50.2731 23.0825 49.7404 23.3766 49.3512 23.9646C48.9648 24.5527 48.7702 25.378 48.7674 26.4405H48.8356C48.9947 26.199 49.1836 25.9931 49.4023 25.8226C49.6239 25.6493 49.8683 25.5158 50.1353 25.422C50.4023 25.3283 50.685 25.2814 50.9833 25.2814C51.4833 25.2814 51.9407 25.4064 52.3555 25.6564C52.7702 25.9036 53.1026 26.2459 53.3526 26.6834C53.6026 27.1181 53.7276 27.6166 53.7276 28.1791C53.7276 28.7189 53.6069 29.2132 53.3654 29.6621C53.1239 30.1081 52.7844 30.4632 52.3469 30.7274C51.9123 30.9888 51.4009 31.1166 50.8129 31.111ZM50.8129 30.1735C51.1708 30.1735 51.4918 30.084 51.7759 29.905C52.0629 29.726 52.2887 29.486 52.4535 29.1848C52.6211 28.8837 52.7049 28.5485 52.7049 28.1791C52.7049 27.8183 52.6239 27.4902 52.462 27.1948C52.3029 26.8965 52.0827 26.6593 51.8015 26.4831C51.5231 26.307 51.2049 26.2189 50.8469 26.2189C50.5771 26.2189 50.3256 26.2729 50.0927 26.3808C49.8597 26.486 49.6552 26.6308 49.479 26.8155C49.3058 27.0002 49.1694 27.2118 49.07 27.4504C48.9705 27.6862 48.9208 27.9348 48.9208 28.1962C48.9208 28.5428 49.0018 28.8666 49.1637 29.1678C49.3285 29.4689 49.5529 29.7118 49.837 29.8965C50.1239 30.0811 50.4492 30.1735 50.8129 30.1735ZM58.25 31.111C57.608 31.111 57.0611 30.9362 56.6094 30.5868C56.1577 30.2345 55.8125 29.7246 55.5739 29.057C55.3352 28.3865 55.2159 27.5769 55.2159 26.628C55.2159 25.6848 55.3352 24.8794 55.5739 24.2118C55.8153 23.5414 56.1619 23.03 56.6136 22.6777C57.0682 22.3226 57.6136 22.145 58.25 22.145C58.8864 22.145 59.4304 22.3226 59.8821 22.6777C60.3366 23.03 60.6832 23.5414 60.9219 24.2118C61.1634 24.8794 61.2841 25.6848 61.2841 26.628C61.2841 27.5769 61.1648 28.3865 60.9261 29.057C60.6875 29.7246 60.3423 30.2345 59.8906 30.5868C59.4389 30.9362 58.892 31.111 58.25 31.111ZM58.25 30.1735C58.8864 30.1735 59.3807 29.8666 59.733 29.253C60.0852 28.6394 60.2614 27.7644 60.2614 26.628C60.2614 25.8723 60.1804 25.2289 60.0185 24.6976C59.8594 24.1664 59.6293 23.7615 59.3281 23.4831C59.0298 23.2047 58.6705 23.0655 58.25 23.0655C57.6193 23.0655 57.1264 23.3766 56.7713 23.9987C56.4162 24.6181 56.2386 25.4945 56.2386 26.628C56.2386 27.3837 56.3182 28.0257 56.4773 28.5541C56.6364 29.0825 56.8651 29.4845 57.1634 29.7601C57.4645 30.0357 57.8267 30.1735 58.25 30.1735Z" fill="#4F4F4F"/>
<path d="M93.2077 176.719H94.0884V181.918C94.0884 182.382 94.0032 182.776 93.8327 183.1C93.6623 183.425 93.422 183.671 93.1119 183.839C92.8017 184.007 92.436 184.091 92.0146 184.091C91.6168 184.091 91.2629 184.019 90.9528 183.874C90.6426 183.728 90.3988 183.519 90.2212 183.249C90.0437 182.98 89.9549 182.659 89.9549 182.287H90.8214C90.8214 182.493 90.8723 182.673 90.9741 182.827C91.0782 182.978 91.2203 183.097 91.4002 183.182C91.5801 183.267 91.7849 183.31 92.0146 183.31C92.2679 183.31 92.4833 183.257 92.6609 183.15C92.8384 183.043 92.9734 182.887 93.0657 182.681C93.1604 182.473 93.2077 182.218 93.2077 181.918V176.719ZM97.3448 184.119C96.9992 184.119 96.6855 184.054 96.4038 183.924C96.122 183.792 95.8983 183.601 95.7326 183.352C95.5669 183.101 95.484 182.798 95.484 182.443C95.484 182.131 95.5456 181.878 95.6687 181.683C95.7918 181.487 95.9563 181.333 96.1623 181.222C96.3683 181.11 96.5955 181.028 96.8441 180.973C97.0951 180.916 97.3472 180.871 97.6005 180.838C97.9319 180.796 98.2006 180.764 98.4066 180.742C98.6149 180.719 98.7665 180.68 98.8612 180.625C98.9582 180.571 99.0067 180.476 99.0067 180.341V180.313C99.0067 179.962 98.9109 179.69 98.7191 179.496C98.5297 179.302 98.2421 179.205 97.8562 179.205C97.4561 179.205 97.1424 179.292 96.9151 179.467C96.6879 179.643 96.5281 179.83 96.4357 180.029L95.6403 179.744C95.7823 179.413 95.9717 179.155 96.2085 178.97C96.4476 178.783 96.708 178.653 96.9897 178.58C97.2738 178.504 97.5531 178.466 97.8278 178.466C98.003 178.466 98.2042 178.487 98.4315 178.53C98.6611 178.57 98.8825 178.654 99.0955 178.782C99.311 178.91 99.4897 179.103 99.6317 179.361C99.7738 179.619 99.8448 179.965 99.8448 180.398V183.992H99.0067V183.253H98.9641C98.9073 183.371 98.8126 183.498 98.68 183.633C98.5475 183.768 98.3711 183.883 98.1509 183.977C97.9308 184.072 97.6621 184.119 97.3448 184.119ZM97.4727 183.367C97.8041 183.367 98.0835 183.302 98.3107 183.171C98.5404 183.041 98.7132 182.873 98.8292 182.667C98.9476 182.461 99.0067 182.244 99.0067 182.017V181.25C98.9712 181.293 98.8931 181.332 98.7724 181.367C98.654 181.4 98.5167 181.43 98.3604 181.456C98.2066 181.48 98.0562 181.501 97.9094 181.52C97.765 181.537 97.6478 181.551 97.5579 181.563C97.3401 181.591 97.1365 181.637 96.9471 181.701C96.7601 181.763 96.6085 181.856 96.4925 181.982C96.3789 182.105 96.3221 182.273 96.3221 182.486C96.3221 182.777 96.4298 182.997 96.6452 183.146C96.863 183.293 97.1388 183.367 97.4727 183.367ZM102.213 180.71V183.992H101.374V178.537H102.184V179.389H102.255C102.383 179.112 102.577 178.89 102.838 178.722C103.098 178.551 103.434 178.466 103.846 178.466C104.215 178.466 104.539 178.542 104.816 178.693C105.093 178.842 105.308 179.07 105.462 179.375C105.616 179.678 105.693 180.062 105.693 180.526V183.992H104.855V180.583C104.855 180.154 104.743 179.82 104.521 179.581C104.298 179.34 103.993 179.219 103.605 179.219C103.337 179.219 103.098 179.277 102.887 179.393C102.679 179.509 102.514 179.678 102.394 179.901C102.273 180.123 102.213 180.393 102.213 180.71Z" fill="#4F4F4F"/>
<path d="M152.131 183.992V176.719H156.491V177.5H153.011V179.958H156.165V180.739H153.011V183.992H152.131ZM159.773 184.105C159.247 184.105 158.794 183.989 158.413 183.757C158.034 183.523 157.741 183.196 157.536 182.777C157.332 182.356 157.23 181.866 157.23 181.307C157.23 180.748 157.332 180.256 157.536 179.83C157.741 179.401 158.028 179.067 158.395 178.828C158.764 178.587 159.195 178.466 159.688 178.466C159.972 178.466 160.252 178.513 160.529 178.608C160.806 178.703 161.058 178.857 161.286 179.07C161.513 179.28 161.694 179.56 161.829 179.908C161.964 180.256 162.031 180.684 162.031 181.193V181.548H157.827V180.824H161.179C161.179 180.516 161.117 180.242 160.994 180C160.874 179.759 160.701 179.568 160.476 179.428C160.253 179.289 159.991 179.219 159.688 179.219C159.354 179.219 159.065 179.302 158.821 179.467C158.58 179.631 158.394 179.844 158.263 180.107C158.133 180.369 158.068 180.651 158.068 180.952V181.435C158.068 181.847 158.139 182.196 158.281 182.482C158.426 182.766 158.626 182.983 158.881 183.132C159.137 183.279 159.434 183.352 159.773 183.352C159.993 183.352 160.192 183.322 160.369 183.26C160.549 183.196 160.704 183.101 160.835 182.976C160.965 182.848 161.065 182.69 161.136 182.5L161.946 182.727C161.861 183.002 161.718 183.244 161.516 183.452C161.315 183.658 161.067 183.819 160.771 183.935C160.475 184.048 160.142 184.105 159.773 184.105ZM163.42 183.992V176.719H164.258V179.404H164.329C164.39 179.309 164.476 179.188 164.585 179.041C164.696 178.892 164.854 178.76 165.06 178.644C165.269 178.525 165.55 178.466 165.906 178.466C166.365 178.466 166.77 178.581 167.12 178.811C167.47 179.04 167.744 179.366 167.94 179.787C168.137 180.208 168.235 180.706 168.235 181.279C168.235 181.856 168.137 182.357 167.94 182.781C167.744 183.202 167.472 183.529 167.124 183.761C166.776 183.99 166.374 184.105 165.92 184.105C165.569 184.105 165.289 184.047 165.078 183.931C164.867 183.813 164.705 183.679 164.592 183.53C164.478 183.378 164.39 183.253 164.329 183.154H164.229V183.992H163.42ZM164.244 181.264C164.244 181.676 164.304 182.04 164.425 182.355C164.545 182.667 164.722 182.912 164.954 183.09C165.186 183.265 165.47 183.352 165.806 183.352C166.156 183.352 166.449 183.26 166.683 183.075C166.92 182.888 167.098 182.637 167.216 182.323C167.337 182.005 167.397 181.653 167.397 181.264C167.397 180.881 167.338 180.535 167.219 180.227C167.103 179.917 166.927 179.672 166.69 179.492C166.456 179.31 166.161 179.219 165.806 179.219C165.465 179.219 165.179 179.305 164.947 179.478C164.715 179.649 164.54 179.888 164.421 180.195C164.303 180.501 164.244 180.857 164.244 181.264Z" fill="#4F4F4F"/>
<path d="M204.755 176.719H205.806L208.277 182.756H208.363L210.834 176.719H211.885V183.992H211.062V178.466H210.991L208.718 183.992H207.922L205.65 178.466H205.579V183.992H204.755V176.719ZM215.143 184.119C214.797 184.119 214.483 184.054 214.202 183.924C213.92 183.792 213.696 183.601 213.53 183.352C213.365 183.101 213.282 182.798 213.282 182.443C213.282 182.131 213.343 181.878 213.467 181.683C213.59 181.487 213.754 181.333 213.96 181.222C214.166 181.11 214.393 181.028 214.642 180.973C214.893 180.916 215.145 180.871 215.398 180.838C215.73 180.796 215.998 180.764 216.204 180.742C216.413 180.719 216.564 180.68 216.659 180.625C216.756 180.571 216.805 180.476 216.805 180.341V180.313C216.805 179.962 216.709 179.69 216.517 179.496C216.328 179.302 216.04 179.205 215.654 179.205C215.254 179.205 214.94 179.292 214.713 179.467C214.486 179.643 214.326 179.83 214.234 180.029L213.438 179.744C213.58 179.413 213.77 179.155 214.006 178.97C214.245 178.783 214.506 178.653 214.788 178.58C215.072 178.504 215.351 178.466 215.626 178.466C215.801 178.466 216.002 178.487 216.229 178.53C216.459 178.57 216.68 178.654 216.893 178.782C217.109 178.91 217.288 179.103 217.43 179.361C217.572 179.619 217.643 179.965 217.643 180.398V183.992H216.805V183.253H216.762C216.705 183.371 216.61 183.498 216.478 183.633C216.345 183.768 216.169 183.883 215.949 183.977C215.729 184.072 215.46 184.119 215.143 184.119ZM215.271 183.367C215.602 183.367 215.881 183.302 216.109 183.171C216.338 183.041 216.511 182.873 216.627 182.667C216.745 182.461 216.805 182.244 216.805 182.017V181.25C216.769 181.293 216.691 181.332 216.57 181.367C216.452 181.4 216.315 181.43 216.158 181.456C216.004 181.48 215.854 181.501 215.707 181.52C215.563 181.537 215.446 181.551 215.356 181.563C215.138 181.591 214.934 181.637 214.745 181.701C214.558 181.763 214.406 181.856 214.29 181.982C214.177 182.105 214.12 182.273 214.12 182.486C214.12 182.777 214.228 182.997 214.443 183.146C214.661 183.293 214.937 183.367 215.271 183.367ZM219.172 183.992V178.537H219.982V179.361H220.039C220.138 179.091 220.318 178.872 220.579 178.704C220.839 178.536 221.133 178.452 221.459 178.452C221.521 178.452 221.598 178.453 221.69 178.455C221.782 178.458 221.852 178.461 221.9 178.466V179.318C221.871 179.311 221.806 179.301 221.704 179.286C221.605 179.27 221.499 179.262 221.388 179.262C221.123 179.262 220.886 179.317 220.678 179.428C220.472 179.537 220.309 179.689 220.188 179.883C220.07 180.075 220.01 180.294 220.01 180.54V183.992H219.172Z" fill="#4F4F4F"/>
<path d="M257.893 183.992H256.97L259.64 176.719H260.549L263.22 183.992H262.296L260.123 177.869H260.066L257.893 183.992ZM258.234 181.151H261.955V181.932H258.234V181.151ZM264.239 186.037V178.537H265.048V179.404H265.148C265.209 179.309 265.295 179.188 265.403 179.041C265.515 178.892 265.673 178.76 265.879 178.644C266.088 178.525 266.369 178.466 266.725 178.466C267.184 178.466 267.589 178.581 267.939 178.811C268.289 179.04 268.563 179.366 268.759 179.787C268.956 180.208 269.054 180.706 269.054 181.279C269.054 181.856 268.956 182.357 268.759 182.781C268.563 183.202 268.291 183.529 267.943 183.761C267.595 183.99 267.193 184.105 266.739 184.105C266.388 184.105 266.108 184.047 265.897 183.931C265.686 183.813 265.524 183.679 265.411 183.53C265.297 183.378 265.209 183.253 265.148 183.154H265.077V186.037H264.239ZM265.063 181.264C265.063 181.676 265.123 182.04 265.244 182.355C265.364 182.667 265.541 182.912 265.773 183.09C266.005 183.265 266.289 183.352 266.625 183.352C266.975 183.352 267.268 183.26 267.502 183.075C267.739 182.888 267.917 182.637 268.035 182.323C268.156 182.005 268.216 181.653 268.216 181.264C268.216 180.881 268.157 180.535 268.038 180.227C267.922 179.917 267.746 179.672 267.509 179.492C267.275 179.31 266.98 179.219 266.625 179.219C266.284 179.219 265.998 179.305 265.766 179.478C265.534 179.649 265.359 179.888 265.24 180.195C265.122 180.501 265.063 180.857 265.063 181.264ZM270.332 183.992V178.537H271.142V179.361H271.199C271.298 179.091 271.478 178.872 271.739 178.704C271.999 178.536 272.293 178.452 272.619 178.452C272.681 178.452 272.758 178.453 272.85 178.455C272.943 178.458 273.012 178.461 273.06 178.466V179.318C273.031 179.311 272.966 179.301 272.864 179.286C272.765 179.27 272.66 179.262 272.548 179.262C272.283 179.262 272.046 179.317 271.838 179.428C271.632 179.537 271.469 179.689 271.348 179.883C271.23 180.075 271.171 180.294 271.171 180.54V183.992H270.332Z" fill="#4F4F4F"/>
<path d="M309.429 176.719H310.48L312.951 182.756H313.036L315.508 176.719H316.559V183.992H315.735V178.466H315.664L313.392 183.992H312.596L310.323 178.466H310.252V183.992H309.429V176.719ZM319.816 184.119C319.471 184.119 319.157 184.054 318.875 183.924C318.594 183.792 318.37 183.601 318.204 183.352C318.039 183.101 317.956 182.798 317.956 182.443C317.956 182.131 318.017 181.878 318.14 181.683C318.263 181.487 318.428 181.333 318.634 181.222C318.84 181.11 319.067 181.028 319.316 180.973C319.567 180.916 319.819 180.871 320.072 180.838C320.404 180.796 320.672 180.764 320.878 180.742C321.087 180.719 321.238 180.68 321.333 180.625C321.43 180.571 321.478 180.476 321.478 180.341V180.313C321.478 179.962 321.383 179.69 321.191 179.496C321.001 179.302 320.714 179.205 320.328 179.205C319.928 179.205 319.614 179.292 319.387 179.467C319.16 179.643 319 179.83 318.907 180.029L318.112 179.744C318.254 179.413 318.443 179.155 318.68 178.97C318.919 178.783 319.18 178.653 319.461 178.58C319.745 178.504 320.025 178.466 320.299 178.466C320.475 178.466 320.676 178.487 320.903 178.53C321.133 178.57 321.354 178.654 321.567 178.782C321.783 178.91 321.961 179.103 322.103 179.361C322.245 179.619 322.316 179.965 322.316 180.398V183.992H321.478V183.253H321.436C321.379 183.371 321.284 183.498 321.152 183.633C321.019 183.768 320.843 183.883 320.623 183.977C320.402 184.072 320.134 184.119 319.816 184.119ZM319.944 183.367C320.276 183.367 320.555 183.302 320.782 183.171C321.012 183.041 321.185 182.873 321.301 182.667C321.419 182.461 321.478 182.244 321.478 182.017V181.25C321.443 181.293 321.365 181.332 321.244 181.367C321.126 181.4 320.988 181.43 320.832 181.456C320.678 181.48 320.528 181.501 320.381 181.52C320.237 181.537 320.12 181.551 320.03 181.563C319.812 181.591 319.608 181.637 319.419 181.701C319.232 181.763 319.08 181.856 318.964 181.982C318.851 182.105 318.794 182.273 318.794 182.486C318.794 182.777 318.901 182.997 319.117 183.146C319.335 183.293 319.611 183.367 319.944 183.367ZM323.846 183.992V178.537H324.684V183.992H323.846ZM324.272 177.628C324.109 177.628 323.968 177.572 323.85 177.461C323.734 177.35 323.676 177.216 323.676 177.06C323.676 176.904 323.734 176.77 323.85 176.659C323.968 176.547 324.109 176.492 324.272 176.492C324.436 176.492 324.575 176.547 324.691 176.659C324.81 176.77 324.869 176.904 324.869 177.06C324.869 177.216 324.81 177.35 324.691 177.461C324.575 177.572 324.436 177.628 324.272 177.628Z" fill="#4F4F4F"/>
<path d="M365.12 176.719H366.001V181.918C366.001 182.382 365.915 182.776 365.745 183.1C365.574 183.425 365.334 183.671 365.024 183.839C364.714 184.007 364.348 184.091 363.927 184.091C363.529 184.091 363.175 184.019 362.865 183.874C362.555 183.728 362.311 183.519 362.133 183.249C361.956 182.98 361.867 182.659 361.867 182.287H362.733C362.733 182.493 362.784 182.673 362.886 182.827C362.99 182.978 363.132 183.097 363.312 183.182C363.492 183.267 363.697 183.31 363.927 183.31C364.18 183.31 364.395 183.257 364.573 183.15C364.751 183.043 364.885 182.887 364.978 182.681C365.073 182.473 365.12 182.218 365.12 181.918V176.719ZM371.089 181.762V178.537H371.927V183.992H371.089V183.068H371.032C370.905 183.345 370.706 183.581 370.436 183.775C370.166 183.967 369.825 184.063 369.413 184.063C369.072 184.063 368.769 183.988 368.504 183.839C368.239 183.687 368.031 183.46 367.879 183.157C367.728 182.852 367.652 182.467 367.652 182.003V178.537H368.49V181.946C368.49 182.344 368.601 182.661 368.824 182.898C369.049 183.135 369.335 183.253 369.683 183.253C369.891 183.253 370.103 183.2 370.319 183.093C370.537 182.987 370.719 182.823 370.866 182.603C371.015 182.383 371.089 182.102 371.089 181.762ZM374.3 180.71V183.992H373.462V178.537H374.272V179.389H374.343C374.471 179.112 374.665 178.89 374.925 178.722C375.186 178.551 375.522 178.466 375.934 178.466C376.303 178.466 376.626 178.542 376.903 178.693C377.18 178.842 377.396 179.07 377.55 179.375C377.704 179.678 377.781 180.062 377.781 180.526V183.992H376.942V180.583C376.942 180.154 376.831 179.82 376.609 179.581C376.386 179.34 376.081 179.219 375.692 179.219C375.425 179.219 375.186 179.277 374.975 179.393C374.767 179.509 374.602 179.678 374.482 179.901C374.361 180.123 374.3 180.393 374.3 180.71Z" fill="#4F4F4F"/>
<path d="M78 134.992L132.5 106.992L185 134.992L238 26.9916L291 79.9916L344 53.4916L397 134.992" stroke="#165BAA" stroke-width="2"/>
</svg>
